<svg width="512" height="512" viewBox="0 0 512 512" xmlns="http://www.w3.org/2000/svg">
  <rect width="512" height="512" rx="96" fill="#0d1017"/>
  <line x1="22"  y1="22"  x2="490" y2="22"  stroke="#141b27" stroke-width="1.2"/>
  <line x1="22"  y1="44"  x2="490" y2="44"  stroke="#141b27" stroke-width="1.2"/>
  <line x1="22"  y1="66"  x2="490" y2="66"  stroke="#141b27" stroke-width="1.2"/>
  <line x1="22"  y1="88"  x2="490" y2="88"  stroke="#141b27" stroke-width="1.2"/>
  <line x1="22"  y1="110" x2="490" y2="110" stroke="#141b27" stroke-width="1.2"/>
  <line x1="22"  y1="132" x2="490" y2="132" stroke="#141b27" stroke-width="1.2"/>
  <line x1="22"  y1="154" x2="490" y2="154" stroke="#141b27" stroke-width="1.2"/>
  <line x1="22"  y1="176" x2="490" y2="176" stroke="#141b27" stroke-width="1.2"/>
  <line x1="22"  y1="198" x2="490" y2="198" stroke="#141b27" stroke-width="1.2"/>
  <line x1="22"  y1="220" x2="490" y2="220" stroke="#141b27" stroke-width="1.2"/>
  <line x1="22"  y1="242" x2="490" y2="242" stroke="#141b27" stroke-width="1.2"/>
  <line x1="22"  y1="264" x2="490" y2="264" stroke="#141b27" stroke-width="1.2"/>
  <line x1="22"  y1="286" x2="490" y2="286" stroke="#141b27" stroke-width="1.2"/>
  <line x1="22"  y1="308" x2="490" y2="308" stroke="#141b27" stroke-width="1.2"/>
  <line x1="22"  y1="330" x2="490" y2="330" stroke="#141b27" stroke-width="1.2"/>
  <line x1="22"  y1="352" x2="490" y2="352" stroke="#141b27" stroke-width="1.2"/>
  <line x1="22"  y1="374" x2="490" y2="374" stroke="#141b27" stroke-width="1.2"/>
  <line x1="22"  y1="396" x2="490" y2="396" stroke="#141b27" stroke-width="1.2"/>
  <line x1="22"  y1="418" x2="490" y2="418" stroke="#141b27" stroke-width="1.2"/>
  <line x1="22"  y1="440" x2="490" y2="440" stroke="#141b27" stroke-width="1.2"/>
  <line x1="22"  y1="462" x2="490" y2="462" stroke="#141b27" stroke-width="1.2"/>
  <line x1="22"  y1="484" x2="490" y2="484" stroke="#141b27" stroke-width="1.2"/>
  <line x1="22"  y1="22" x2="22"  y2="490" stroke="#141b27" stroke-width="1.2"/>
  <line x1="44"  y1="22" x2="44"  y2="490" stroke="#141b27" stroke-width="1.2"/>
  <line x1="66"  y1="22" x2="66"  y2="490" stroke="#141b27" stroke-width="1.2"/>
  <line x1="88"  y1="22" x2="88"  y2="490" stroke="#141b27" stroke-width="1.2"/>
  <line x1="110" y1="22" x2="110" y2="490" stroke="#141b27" stroke-width="1.2"/>
  <line x1="132" y1="22" x2="132" y2="490" stroke="#141b27" stroke-width="1.2"/>
  <line x1="154" y1="22" x2="154" y2="490" stroke="#141b27" stroke-width="1.2"/>
  <line x1="176" y1="22" x2="176" y2="490" stroke="#141b27" stroke-width="1.2"/>
  <line x1="198" y1="22" x2="198" y2="490" stroke="#141b27" stroke-width="1.2"/>
  <line x1="220" y1="22" x2="220" y2="490" stroke="#141b27" stroke-width="1.2"/>
  <line x1="242" y1="22" x2="242" y2="490" stroke="#141b27" stroke-width="1.2"/>
  <line x1="264" y1="22" x2="264" y2="490" stroke="#141b27" stroke-width="1.2"/>
  <line x1="286" y1="22" x2="286" y2="490" stroke="#141b27" stroke-width="1.2"/>
  <line x1="308" y1="22" x2="308" y2="490" stroke="#141b27" stroke-width="1.2"/>
  <line x1="330" y1="22" x2="330" y2="490" stroke="#141b27" stroke-width="1.2"/>
  <line x1="352" y1="22" x2="352" y2="490" stroke="#141b27" stroke-width="1.2"/>
  <line x1="374" y1="22" x2="374" y2="490" stroke="#141b27" stroke-width="1.2"/>
  <line x1="396" y1="22" x2="396" y2="490" stroke="#141b27" stroke-width="1.2"/>
  <line x1="418" y1="22" x2="418" y2="490" stroke="#141b27" stroke-width="1.2"/>
  <line x1="440" y1="22" x2="440" y2="490" stroke="#141b27" stroke-width="1.2"/>
  <line x1="462" y1="22" x2="462" y2="490" stroke="#141b27" stroke-width="1.2"/>
  <line x1="484" y1="22" x2="484" y2="490" stroke="#141b27" stroke-width="1.2"/>
  <!-- perna esquerda H: cols 0-1, rows 0-2 e 5-6 -->
  <rect x="36"  y="36"  width="58" height="58" rx="4" fill="#00d26a" fill-opacity="0.08" stroke="#00d26a" stroke-width="1.2" stroke-opacity="0.4"/>
  <rect x="102" y="36"  width="58" height="58" rx="4" fill="#00d26a" fill-opacity="0.08" stroke="#00d26a" stroke-width="1.2" stroke-opacity="0.4"/>
  <rect x="36"  y="102" width="58" height="58" rx="4" fill="#00d26a" fill-opacity="0.08" stroke="#00d26a" stroke-width="1.2" stroke-opacity="0.4"/>
  <rect x="102" y="102" width="58" height="58" rx="4" fill="#00d26a" fill-opacity="0.08" stroke="#00d26a" stroke-width="1.2" stroke-opacity="0.4"/>
  <rect x="36"  y="168" width="58" height="58" rx="4" fill="#00d26a" fill-opacity="0.08" stroke="#00d26a" stroke-width="1.2" stroke-opacity="0.4"/>
  <rect x="102" y="168" width="58" height="58" rx="4" fill="#00d26a" fill-opacity="0.08" stroke="#00d26a" stroke-width="1.2" stroke-opacity="0.4"/>
  <rect x="36"  y="366" width="58" height="58" rx="4" fill="#00d26a" fill-opacity="0.08" stroke="#00d26a" stroke-width="1.2" stroke-opacity="0.4"/>
  <rect x="102" y="366" width="58" height="58" rx="4" fill="#00d26a" fill-opacity="0.08" stroke="#00d26a" stroke-width="1.2" stroke-opacity="0.4"/>
  <rect x="36"  y="432" width="58" height="58" rx="4" fill="#00d26a" fill-opacity="0.08" stroke="#00d26a" stroke-width="1.2" stroke-opacity="0.4"/>
  <rect x="102" y="432" width="58" height="58" rx="4" fill="#00d26a" fill-opacity="0.08" stroke="#00d26a" stroke-width="1.2" stroke-opacity="0.4"/>
  <!-- perna direita H: cols 5-6, rows 0-2 e 5-6 -->
  <rect x="366" y="36"  width="58" height="58" rx="4" fill="#00d26a" fill-opacity="0.08" stroke="#00d26a" stroke-width="1.2" stroke-opacity="0.4"/>
  <rect x="432" y="36"  width="58" height="58" rx="4" fill="#00d26a" fill-opacity="0.08" stroke="#00d26a" stroke-width="1.2" stroke-opacity="0.4"/>
  <rect x="366" y="102" width="58" height="58" rx="4" fill="#00d26a" fill-opacity="0.08" stroke="#00d26a" stroke-width="1.2" stroke-opacity="0.4"/>
  <rect x="432" y="102" width="58" height="58" rx="4" fill="#00d26a" fill-opacity="0.08" stroke="#00d26a" stroke-width="1.2" stroke-opacity="0.4"/>
  <rect x="366" y="168" width="58" height="58" rx="4" fill="#00d26a" fill-opacity="0.08" stroke="#00d26a" stroke-width="1.2" stroke-opacity="0.4"/>
  <rect x="432" y="168" width="58" height="58" rx="4" fill="#00d26a" fill-opacity="0.08" stroke="#00d26a" stroke-width="1.2" stroke-opacity="0.4"/>
  <rect x="366" y="366" width="58" height="58" rx="4" fill="#00d26a" fill-opacity="0.08" stroke="#00d26a" stroke-width="1.2" stroke-opacity="0.4"/>
  <rect x="432" y="366" width="58" height="58" rx="4" fill="#00d26a" fill-opacity="0.08" stroke="#00d26a" stroke-width="1.2" stroke-opacity="0.4"/>
  <rect x="366" y="432" width="58" height="58" rx="4" fill="#00d26a" fill-opacity="0.08" stroke="#00d26a" stroke-width="1.2" stroke-opacity="0.4"/>
  <rect x="432" y="432" width="58" height="58" rx="4" fill="#00d26a" fill-opacity="0.08" stroke="#00d26a" stroke-width="1.2" stroke-opacity="0.4"/>
  <!-- barra central H: cols 0-6, rows 3-4 -->
  <rect x="36"  y="234" width="58" height="58" rx="4" fill="#00d26a" fill-opacity="0.08" stroke="#00d26a" stroke-width="1.2" stroke-opacity="0.4"/>
  <rect x="102" y="234" width="58" height="58" rx="4" fill="#00d26a" fill-opacity="0.08" stroke="#00d26a" stroke-width="1.2" stroke-opacity="0.4"/>
  <rect x="168" y="234" width="58" height="58" rx="4" fill="#00d26a" fill-opacity="0.08" stroke="#00d26a" stroke-width="1.2" stroke-opacity="0.4"/>
  <rect x="234" y="234" width="58" height="58" rx="4" fill="#00d26a" fill-opacity="0.08" stroke="#00d26a" stroke-width="1.2" stroke-opacity="0.4"/>
  <rect x="300" y="234" width="58" height="58" rx="4" fill="#00d26a" fill-opacity="0.08" stroke="#00d26a" stroke-width="1.2" stroke-opacity="0.4"/>
  <rect x="366" y="234" width="58" height="58" rx="4" fill="#00d26a" fill-opacity="0.08" stroke="#00d26a" stroke-width="1.2" stroke-opacity="0.4"/>
  <rect x="432" y="234" width="58" height="58" rx="4" fill="#00d26a" fill-opacity="0.08" stroke="#00d26a" stroke-width="1.2" stroke-opacity="0.4"/>
  <rect x="36"  y="300" width="58" height="58" rx="4" fill="#00d26a" fill-opacity="0.08" stroke="#00d26a" stroke-width="1.2" stroke-opacity="0.4"/>
  <rect x="102" y="300" width="58" height="58" rx="4" fill="#00d26a" fill-opacity="0.08" stroke="#00d26a" stroke-width="1.2" stroke-opacity="0.4"/>
  <rect x="168" y="300" width="58" height="58" rx="4" fill="#00d26a" fill-opacity="0.08" stroke="#00d26a" stroke-width="1.2" stroke-opacity="0.4"/>
  <rect x="234" y="300" width="58" height="58" rx="4" fill="#00d26a" fill-opacity="0.08" stroke="#00d26a" stroke-width="1.2" stroke-opacity="0.4"/>
  <rect x="300" y="300" width="58" height="58" rx="4" fill="#00d26a" fill-opacity="0.08" stroke="#00d26a" stroke-width="1.2" stroke-opacity="0.4"/>
  <rect x="366" y="300" width="58" height="58" rx="4" fill="#00d26a" fill-opacity="0.08" stroke="#00d26a" stroke-width="1.2" stroke-opacity="0.4"/>
  <rect x="432" y="300" width="58" height="58" rx="4" fill="#00d26a" fill-opacity="0.08" stroke="#00d26a" stroke-width="1.2" stroke-opacity="0.4"/>
  <!-- rota de navegação -->
  <polyline points="65,461 65,263 461,263 461,65" fill="none" stroke="#3b82f6" stroke-width="6" stroke-linejoin="round" stroke-linecap="round"/>
  <!-- waypoints intermediários -->
  <circle cx="65"  cy="263" r="10" fill="#0d1017" stroke="#3b82f6" stroke-width="3"/>
  <circle cx="65"  cy="263" r="4"  fill="#3b82f6"/>
  <circle cx="461" cy="263" r="10" fill="#0d1017" stroke="#3b82f6" stroke-width="3"/>
  <circle cx="461" cy="263" r="4"  fill="#3b82f6"/>
  <!-- origem âmbar -->
  <circle cx="65"  cy="461" r="13" fill="#f59e0b"/>
  <circle cx="65"  cy="461" r="6"  fill="#0d1017"/>
  <!-- destino losango verde -->
  <polygon points="461,36 482,65 461,94 440,65" fill="#00d26a"/>
  <polygon points="461,48 472,65 461,82 450,65" fill="#0d1017" fill-opacity="0.4"/>
</svg>
